@startuml
'https://plantuml.com/class-diagram

title Update Airport Status: Architecture — Class Diagram

package "Airport Aggregate" <<rectangle>> {
    class Airport <<root>> {
        - String name
        - LocationIdentifier iata
        - AirportType airport_type
        - Coordinates coordinates
        - AirportLocation airport_location
        - TimeZone time_zone
        - OperationalHours operational_hours
        - List<RunwayInfo> runway_info
        - AirportStatus status
        - List<ContactInfo> contact_info
        - List<AirportTerminal> terminals
        - List<AirportGate> gates
        - List<AirportService> services
        - List<String> images
        - Set<AircraftModel> certified_models
        ---
        + updateStatus(AirportStatus status)
    }

    interface AirportRepository {
        + Optional<Airport> findByIata(LocationIdentifier iata)
        + Airport save(Airport airport)
    }

    class UpdateAirportService <<Domain Service>> {
        + Airport updateStatus(Airport airport, AirportStatus status)
    }

    class UpdateAirportStatusUseCase <<@UseCase>> {
        + Airport execute(LocationIdentifier iata_code, AirportStatus status)
    }

    UpdateAirportStatusUseCase ..> AirportRepository : findByIata()\nsave()
    UpdateAirportStatusUseCase ..> UpdateAirportService : delegates to >
    UpdateAirportService ..> Airport : updates >
}

@enduml