@startuml
'https://plantuml.com/class-diagram
hide circle
skinparam classAttributeIconSize 0
hide methods

title Calculate Total Route Network Distance: Domain Model

package "Route Aggregate" {
    class Route <<entity>> <<root>> {
        - id: RouteID
        - flight_distance: double
        - active: boolean
    }
}

package "Airport Aggregate" {
    class Airport <<entity>> <<root>> {
        - iata: LocationIdentifier
        - status: AirportStatus
    }
}

Route --> Airport : departure
Route --> Airport : destination

@enduml